<svg xmlns="http://www.w3.org/2000/svg" viewBox="0 0 634.7 148.5" fill="#767676"><path d="M0 146.2h84v-37.7H43.2V92.1h37V54.5h-37V40.2H84V2.5H0m160.9 29.6c-13.8 0-24.6 11.4-28.6 23.5l-.4-.5 1.1-20.7H91.5v111.7H133V92.4c0-11.4.6-19 8.7-19 7 0 7.6 6.8 7.6 16.3v56.5h41.5V72.5c-.1-20.1-6-40.4-29.9-40.4zm145.6 24.1l-.4-.4 2.3-21.4h-61.2V9.8h-41.5v24.7h-11.9v33.2h11.9v78.5h41.5V67.7h19.5v78.5h41.5v-45.3c0-11.6 1.9-26.4 17.4-26.4 2.9 0 7.8 2.1 11.6 4V32.1c-15.4-.6-26 10.4-30.7 24.1zm96.3 38.3c0 13.6-.8 19.3-8.2 19.3-7.2 0-8-5.9-8-19.3V34.4h-41.5v65.8c0 30.5 17.4 48.3 49.5 48.3 30.5 0 49.8-15.2 49.8-48.3V34.4h-41.5v60.1zm99.4-17.1c-4.4-1.7-12.5-4.7-12.5-10.4 0-3.6 3.1-5.5 6.1-5.5 7 0 12.5 5.5 17.4 9.9l14.2-30.3a73.6 73.6 0 0 0-34.1-9.1c-26 0-44.9 14.6-44.9 37.7 0 19 12.9 27.5 29.2 33.2 7.2 2.5 10.8 4.8 10.8 8.9 0 4-4.5 5.7-8 5.7-7.6 0-15.9-6.4-20.7-11.6l-15.2 30.9a79.2 79.2 0 0 0 40.2 11.6c23.1 0 44.7-14 44.7-39.2-.1-18-12.1-26.1-27.2-31.8zm84.9-67.6h-41.5v24.6h-11.9v33.3h11.9v78.5h41.5V67.7h13.7V34.4h-13.7M620.2 0a14.5 14.5 0 1 0-.1 29 14.5 14.5 0 0 0 .1-29zm0 27.3c-7.1 0-12.8-5.6-12.8-12.8 0-7.1 5.7-12.7 12.8-12.7 7.1 0 12.7 5.6 12.7 12.7s-5.6 12.8-12.7 12.8z"/><path d="M627.5 11.1c0-2.6-1.5-4.2-5.7-4.2h-6.9v15.9h1.8v-7.3h3.7l4.5 7.3h2.4l-4.8-7.3c2.8-.1 5-1.3 5-4.4zm-7.7 2.5h-3.1v-5h4.7c2 0 4.3.3 4.3 2.4 0 3-3.6 2.6-5.9 2.6z"/></svg>